# xmcd
#
# Track frame offsets: 
#        150
#        17512
#        33975
#        51937
#        69262
#        83637
#        105622
#        124275
#        140975
#        157597
#        175822
#        190537
#        218542
#
# Disc length: 4440 seconds
#
# Revision: 3
# Processed by: cddbd v1.5.1PL0 Copyright (c) Steve Scherf et al.
# Submitted via: ExactAudioCopy v0.95a5
#
DISCID=a111560d
DTITLE=Michael Von der Heide - Frisch
DYEAR=2002
DGENRE=Chanson
TTITLE0=Kriminaltango
TTITLE1=Meistens ist es gut
TTITLE2=Lass uns ein Wunder sein
TTITLE3=Le bleu
TTITLE4=Ich bleib im Bett
TTITLE5=Die Liebenden
TTITLE6=Pulvérisé
TTITLE7=Zieh mich nicht runter
TTITLE8=In den Sternen
TTITLE9=Macht nichts
TTITLE10=Schön allein
TTITLE11=Chauffeur suivez cette voiture
TTITLE12=Data Track
EXTD=
EXTT0=
EXTT1=
EXTT2=
EXTT3=
EXTT4=
EXTT5=
EXTT6=
EXTT7=
EXTT8=
EXTT9=
EXTT10=
EXTT11=
EXTT12=
PLAYORDER=
